<svg width="60px" height="60px" viewBox="0 0 60 60" version="1.1" xmlns="http://www.w3.org/2000/svg" xmlns:xlink="http://www.w3.org/1999/xlink">
  <g fill-rule="evenodd">
    <path d="M48.4327127,27.4447059 L37.4593448,27.4447059 C37.2189489,27.4447059 36.9361301,27.6141176 36.8088617,27.8117647 L30.2333255,38.6541176 C30.106057,38.8517647 29.9222248,38.8517647 29.7949564,38.6541176 L23.2901249,27.8117647 C23.1769974,27.6141176 22.8800377,27.4447059 22.6537827,27.4447059 L11.623851,27.4447059 C11.3834551,27.4447059 11.3127504,27.6 11.4400189,27.7976471 L24.4355409,47.1670588 C24.5628093,47.3647059 24.6759368,47.7035294 24.6759368,47.9435294 L24.6759368,59.5764706 C24.6759368,59.8023529 24.87391,60 25.100165,60 L34.9563988,60 C35.1826538,60 35.3806269,59.8023529 35.3806269,59.5764706 L35.3806269,47.9435294 C35.3806269,47.7176471 35.4937544,47.3647059 35.6210229,47.1670588 L48.6306858,27.7976471 C48.7579543,27.6 48.6731086,27.4447059 48.4327127,27.4447059 L48.4327127,27.4447059 Z"></path>
    <path class="leaf completed-count-0" d="M29.427292,32.3294118 C29.653547,32.4564706 29.8656611,32.5694118 29.9787886,32.5694118 C30.0919161,32.5694118 30.2898892,32.4988235 30.5302852,32.3294118 C35.3947679,28.9835294 31.3504596,24.8894118 29.9787886,23.3505882 C28.6212585,24.8894118 24.5628093,28.9835294 29.427292,32.3294118 L29.427292,32.3294118 Z"></path>
    <path class="leaf completed-count-1" d="M22.7386283,25.1858824 C23.0921518,25.1576471 23.4173934,25.1011765 23.5588027,25.0164706 C23.6860712,24.9317647 23.8557624,24.7058824 24.0254537,24.3388235 C27.2354466,17.0258824 19.6417629,15.7411765 16.9549847,15.1341176 C16.4741928,17.8447059 14.7489984,25.3411765 22.7386283,25.1858824 L22.7386283,25.1858824 Z"></path>
    <path class="leaf completed-count-1" d="M29.9929295,12.7058824 C28.6212585,14.2447059 24.5769503,18.3529412 29.4414329,21.6847059 C29.667688,21.8117647 29.879802,21.9247059 29.9929295,21.9247059 C30.106057,21.9247059 30.3040302,21.8541176 30.5444261,21.6847059 C35.4089088,18.3529412 31.3646005,14.2447059 29.9929295,12.7058824 L29.9929295,12.7058824 Z"></path>
    <path class="leaf completed-count-1" d="M36.4553382,25.0164706 C36.5826066,25.1011765 36.9219892,25.1576471 37.2755126,25.1858824 C45.2651426,25.3411765 43.5399481,17.8305882 43.0732972,15.1341176 C40.386519,15.7411765 32.7928353,17.0258824 36.0028282,24.3388235 C36.1442376,24.7058824 36.3139288,24.9317647 36.4553382,25.0164706 L36.4553382,25.0164706 Z"></path>
    <path class="leaf completed-count-2" d="M29.2717417,10.6870588 C29.5545605,10.8423529 29.8373792,10.9694118 29.9787886,10.9694118 C30.120198,10.9694118 30.3747349,10.8847059 30.6858355,10.6870588 C36.9078482,6.70588235 31.7322649,1.83529412 29.9787886,0 C28.2394532,1.83529412 23.0638699,6.72 29.2717417,10.6870588 L29.2717417,10.6870588 Z"></path>
    <path class="leaf completed-count-2" d="M21.904313,13.92 C22.1871317,13.9764706 22.4558096,14.0047059 22.583078,13.9482353 C22.7103465,13.9058824 22.8800377,13.7505882 23.0638699,13.4682353 C26.8253594,8.03294118 20.9427292,5.35058824 18.8922932,4.27764706 C18.0862597,6.45176471 15.4843271,12.3529412 21.904313,13.92 L21.904313,13.92 Z"></path>
    <path class="leaf completed-count-2" d="M37.416922,13.9482353 C37.5441904,13.9905882 37.8128683,13.9623529 38.095687,13.92 C44.5156729,12.3529412 41.9278812,6.45176471 41.1077068,4.29176471 C39.0572708,5.36470588 33.1746406,8.04705882 36.9361301,13.4823529 C37.1341032,13.7505882 37.3037945,13.9058824 37.416922,13.9482353 L37.416922,13.9482353 Z"></path>
    <path class="leaf completed-count-3" d="M12.557153,23.5905882 C12.8541127,23.3929412 13.1227905,23.2094118 13.1934952,23.0682353 C13.2641999,22.9270588 13.3066227,22.6447059 13.2783408,22.2494118 C12.6844214,14.2870588 5.37355645,16.6870588 2.7150601,17.4070588 C3.57765732,20.0188235 5.55738864,27.4447059 12.557153,23.5905882 L12.557153,23.5905882 Z"></path>
    <path class="leaf completed-count-3" d="M13.9288239,15.6988235 C14.1833608,15.6847059 14.4237568,15.6423529 14.5227433,15.5858824 C14.6217299,15.5152941 14.7348574,15.3458824 14.833844,15.0776471 C16.9125619,9.55764706 11.2561867,8.49882353 9.24817346,8.01882353 C9.00777752,10.0517647 8.01791185,15.7270588 13.9288239,15.6988235 L13.9288239,15.6988235 Z"></path>
    <path class="leaf completed-count-3" d="M45.4772567,15.5717647 C45.5762432,15.6423529 45.8166392,15.6705882 46.0711761,15.6847059 C51.9679472,15.7129412 50.9922225,10.0376471 50.7518265,7.99058824 C48.7438133,8.48470588 43.0732972,9.54352941 45.166156,15.0494118 C45.2792835,15.3458824 45.392411,15.5152941 45.4772567,15.5717647 L45.4772567,15.5717647 Z"></path>
    <path class="leaf completed-count-3" d="M46.7216592,22.2352941 C46.6933773,22.6447059 46.7358001,22.9129412 46.8065048,23.0541176 C46.8772095,23.1952941 47.1458873,23.3929412 47.442847,23.5764706 C54.4426114,27.4447059 56.4223427,20.0047059 57.270799,17.3929412 C54.6264436,16.6870588 47.3014377,14.2870588 46.7216592,22.2352941 L46.7216592,22.2352941 Z"></path>
    <path class="leaf completed-count-4" d="M13.8298374,36.9317647 C13.9571058,36.6070588 14.0560924,36.2823529 14.0278105,36.1270588 C13.9995286,35.9717647 13.8722602,35.7176471 13.6177233,35.4070588 C8.39971718,29.3647059 3.94532171,35.6470588 2.23426821,37.7929412 C4.48267735,39.4023529 10.5067169,44.1882353 13.8298374,36.9317647 L13.8298374,36.9317647 Z"></path>
    <path class="leaf completed-count-4" d="M8.90879095,29.8305882 C9.06434127,29.6188235 9.19160971,29.4070588 9.20575065,29.2941176 C9.21989159,29.1811765 9.16332783,28.9835294 9.00777752,28.7152941 C6.10888522,23.5764706 1.65448975,27.2329412 0,28.4611765 C1.4140938,29.9858824 5.14730144,34.3764706 8.90879095,29.8305882 L8.90879095,29.8305882 Z"></path>
    <path class="leaf completed-count-4" d="M50.9922225,28.7294118 C50.8508131,28.9835294 50.7942494,29.1811765 50.7942494,29.3082353 C50.8083903,29.4211765 50.9356587,29.6329412 51.0912091,29.8447059 C54.8526986,34.3764706 58.5859062,29.9858824 60,28.4894118 C58.3455103,27.2470588 53.8911148,23.5905882 50.9922225,28.7294118 L50.9922225,28.7294118 Z"></path>
    <path class="leaf completed-count-4" d="M46.3964176,35.4211765 C46.1277398,35.7317647 46.0004714,35.9717647 45.9863304,36.1411765 C45.9580486,36.2964706 46.0570351,36.6211765 46.1843036,36.9458824 C49.507424,44.2023529 55.5314636,39.4023529 57.7798727,37.8070588 C56.0546783,35.6470588 51.6002828,29.3647059 46.3964176,35.4211765 L46.3964176,35.4211765 Z"></path>
    <path class="leaf completed-count-5" d="M43.8934716,40.2352941 C43.6530757,40.2352941 43.4833844,40.2776471 43.3985388,40.3341176 C43.3136931,40.3905882 43.2288475,40.56 43.1298609,40.7576471 C41.4046665,45.3035294 46.085317,46.1788235 47.7398067,46.5882353 C47.9519208,44.8941176 48.7579543,40.2211765 43.8934716,40.2352941 L43.8934716,40.2352941 Z"></path>
    <path class="leaf completed-count-5" d="M16.6014612,40.3341176 C16.5166156,40.2776471 16.3610653,40.2352941 16.1065284,40.2352941 C11.2420457,40.2211765 12.0480792,44.8941176 12.2460523,46.5882353 C13.9005421,46.1788235 18.5811926,45.3035294 16.8559981,40.7576471 C16.7711525,40.56 16.6721659,40.3905882 16.6014612,40.3341176 L16.6014612,40.3341176 Z"></path>
  </g>
</svg>